<svg width="12" height="13" viewBox="0 0 12 13" fill="none" xmlns="http://www.w3.org/2000/svg">
<path d="M8.33335 0.666504H3.66669C1.33335 0.666504 0.166687 1.83317 0.166687 4.1665V11.7498C0.166687 12.0707 0.429187 12.3332 0.75002 12.3332H8.33335C10.6667 12.3332 11.8334 11.1665 11.8334 8.83317V4.1665C11.8334 1.83317 10.6667 0.666504 8.33335 0.666504ZM7.16669 8.39567H3.08335C2.84419 8.39567 2.64585 8.19734 2.64585 7.95817C2.64585 7.719 2.84419 7.52067 3.08335 7.52067H7.16669C7.40585 7.52067 7.60419 7.719 7.60419 7.95817C7.60419 8.19734 7.40585 8.39567 7.16669 8.39567ZM8.91669 5.479H3.08335C2.84419 5.479 2.64585 5.28067 2.64585 5.0415C2.64585 4.80234 2.84419 4.604 3.08335 4.604H8.91669C9.15585 4.604 9.35419 4.80234 9.35419 5.0415C9.35419 5.28067 9.15585 5.479 8.91669 5.479Z" fill="black"/>
</svg>
