<svg width="12" height="13" viewBox="0 0 12 13" fill="none" xmlns="http://www.w3.org/2000/svg">
<path d="M8.33332 0.666504H3.66666C1.33332 0.666504 0.166656 1.83317 0.166656 4.1665V11.7498C0.166656 12.0707 0.429157 12.3332 0.74999 12.3332H8.33332C10.6667 12.3332 11.8333 11.1665 11.8333 8.83317V4.1665C11.8333 1.83317 10.6667 0.666504 8.33332 0.666504ZM7.16666 8.39567H3.08332C2.84416 8.39567 2.64582 8.19734 2.64582 7.95817C2.64582 7.719 2.84416 7.52067 3.08332 7.52067H7.16666C7.40582 7.52067 7.60416 7.719 7.60416 7.95817C7.60416 8.19734 7.40582 8.39567 7.16666 8.39567ZM8.91666 5.479H3.08332C2.84416 5.479 2.64582 5.28067 2.64582 5.0415C2.64582 4.80234 2.84416 4.604 3.08332 4.604H8.91666C9.15582 4.604 9.35416 4.80234 9.35416 5.0415C9.35416 5.28067 9.15582 5.479 8.91666 5.479Z" fill="black"/>
</svg>
